<?xml version="1.0"?>
<svg xmlns="http://www.w3.org/2000/svg" width="100" height="106" viewBox="0 0 100 106" fill="none">
<path d="M46.415 5.73572H61.328V76.759C53.6893 78.2603 48.0659 78.8511 41.9815 78.8511C23.7671 78.8313 14.2857 70.376 14.2857 54.1369C14.2857 38.4905 24.3429 28.336 39.9277 28.336C42.3462 28.336 44.1885 28.5338 46.415 29.1263V5.73572ZM46.9375 41.9255C45.1909 41.3327 43.7516 41.1352 41.909 41.1352C34.3662 41.1352 30.0094 45.9159 30.0094 54.2942C30.0094 62.4514 34.1745 66.9555 41.8132 66.9555C43.4636 66.9555 44.8071 66.859 46.9375 66.5626V41.9255Z" fill="#2BA977"/>
<path d="M85.7143 30.2428V65.8032C85.7143 78.0494 84.8314 83.9386 82.2403 89.016C79.8219 93.8973 76.6359 96.9754 70.0527 100.375L56.2145 93.5992C62.7977 90.4202 65.9836 87.6112 68.0183 83.3243C70.1484 78.9406 70.8202 73.8632 70.8202 60.5085V30.2431H85.7143V30.2428ZM69.3174 5.73572H84.2305V21.4809H69.3174V5.73572Z" fill="#2BA977"/>
</svg>
