<?xml version="1.0"?>
<svg xmlns="http://www.w3.org/2000/svg" viewBox="0 0 75 75" fill="none">
<g clip-path="url(#clip0)">
  <path d="M38.9531 28.5596H46.6156V36.394H50.4906C52.2813 36.394 54.1188 36.0752 55.8156 35.5002C56.6469 35.219 57.5813 34.8252 58.4031 34.3315C57.3219 32.919 56.7688 31.1377 56.6063 29.3784C56.3844 26.9877 56.8688 23.8752 58.4844 22.0034L59.2906 21.0721L60.25 21.844C62.6656 23.7846 64.7 26.4971 65.0563 29.5909C67.9656 28.7346 71.3813 28.9377 73.9469 30.419L75 31.0252L74.4469 32.1065C72.2781 36.3409 67.7438 37.6502 63.3094 37.419C56.675 53.944 42.2313 61.7659 24.7188 61.7659C15.6719 61.7659 7.36876 58.3846 2.64376 50.3565L2.56563 50.2252L1.87501 48.8252C0.278133 45.2909 -0.253117 41.4221 0.106258 37.5534L0.215633 36.394H6.76876V28.5596H14.4313V20.8971H29.7563V13.2346H38.9531V28.5596Z" fill="#364548"/>
  <path d="M63.7781 31.4596C64.2906 27.4658 61.3031 24.3314 59.45 22.8408C57.3156 25.3096 56.9813 31.7814 60.3344 34.5064C58.4656 36.1658 54.525 37.6721 50.4906 37.6721H1.38126C0.990632 41.8846 1.72813 45.7627 3.41563 49.0814L3.97501 50.1033C4.32813 50.7033 4.71563 51.2846 5.13126 51.8408C7.15001 51.9721 9.01251 52.0158 10.7156 51.9783C14.0625 51.9033 16.7938 51.5096 18.8625 50.7908C19.175 50.6939 19.5031 50.8689 19.6 51.1783C19.6938 51.4752 19.5375 51.7939 19.2469 51.9033C18.9719 52.0002 18.6844 52.0877 18.3875 52.1721C16.7594 52.6377 15.0094 52.9502 12.7563 53.0908C12.8906 53.0939 12.6156 53.1096 12.6156 53.1096C12.5375 53.1158 12.4438 53.1252 12.3656 53.1283C11.4781 53.1783 10.5219 53.1877 9.54063 53.1877C8.46876 53.1877 7.41563 53.1689 6.23438 53.1064L6.20313 53.1252C10.2938 57.7252 16.6938 60.4814 24.7125 60.4814C41.6844 60.4814 56.0813 52.9564 62.4563 36.0658C66.9781 36.5314 71.325 35.3752 73.3031 31.5158C70.1594 29.7064 66.1094 30.2846 63.7781 31.4596Z" fill="#22A0C8"/>
  <path d="M63.7781 31.4596C64.2906 27.4658 61.3031 24.3314 59.45 22.8408C57.3156 25.3096 56.9813 31.7814 60.3344 34.5064C58.4656 36.1658 54.525 37.6721 50.4906 37.6721H4.2875C4.0875 44.1221 6.48125 49.0158 10.7156 51.9783C14.0625 51.9033 16.7938 51.5096 18.8625 50.7908C19.175 50.6939 19.5031 50.8689 19.6 51.1783C19.6938 51.4752 19.5375 51.7939 19.2469 51.9033C18.9719 52.0002 18.6844 52.0877 18.3875 52.1721C16.7594 52.6377 14.8594 52.9908 12.6063 53.1283C12.6063 53.1283 12.5531 53.0752 12.55 53.0752C18.325 56.0377 26.7031 56.0283 36.3031 52.3377C47.0688 48.2002 57.0906 40.3221 64.0813 31.3064C63.9813 31.3596 63.8781 31.4096 63.7781 31.4596Z" fill="#37B1D9"/>
  <path d="M1.47186 42.7873C1.77811 45.0436 2.43749 47.1561 3.41561 49.0779L3.97499 50.0998C4.32811 50.6998 4.71561 51.2811 5.13124 51.8373C7.14999 51.9686 9.01249 52.0123 10.7156 51.9748C14.0625 51.8998 16.7937 51.5061 18.8625 50.7873C19.175 50.6904 19.5031 50.8654 19.6 51.1748C19.6937 51.4717 19.5375 51.7904 19.2469 51.8998C18.9719 51.9967 18.6844 52.0842 18.3875 52.1686C16.7594 52.6342 14.8687 52.9686 12.6156 53.1061C12.5375 53.1123 12.4031 53.1123 12.325 53.1154C11.4375 53.1654 10.4906 53.1967 9.50936 53.1967C8.43749 53.1967 7.34374 53.1748 6.16561 53.1154C10.2562 57.7154 16.6937 60.4842 24.7156 60.4842C39.2469 60.4842 51.8875 54.9686 59.225 42.7842H1.47186V42.7873Z" fill="#1B81A5"/>
  <path d="M4.73126 42.7875C5.60001 46.75 7.68751 49.8594 10.7188 51.975C14.0656 51.9 16.7969 51.5062 18.8656 50.7875C19.1781 50.6906 19.5063 50.8656 19.6031 51.175C19.6969 51.4719 19.5406 51.7906 19.25 51.9C18.975 51.9969 18.6875 52.0844 18.3906 52.1687C16.7625 52.6344 14.8344 52.9687 12.5781 53.1062C18.3531 56.0687 26.7063 56.025 36.3063 52.3375C42.1156 50.1062 47.7063 46.7844 52.7219 42.7812H4.73126V42.7875Z" fill="#1D91B4"/>
  <path d="M8.04687 29.8373H14.6875V36.4779H8.04687V29.8373ZM8.6 30.3904H9.125V35.9248H8.6V30.3904ZM9.58437 30.3904H10.1281V35.9248H9.58437V30.3904ZM10.5906 30.3904H11.1344V35.9248H10.5906V30.3904ZM11.5969 30.3904H12.1406V35.9248H11.5969V30.3904ZM12.6031 30.3904H13.1469V35.9248H12.6031V30.3904ZM13.6094 30.3904H14.1344V35.9248H13.6094V30.3904ZM15.7094 22.1748H22.35V28.8154H15.7062L15.7094 22.1748ZM16.2625 22.7279H16.7875V28.2623H16.2625V22.7279ZM17.2469 22.7279H17.7906V28.2623H17.2469V22.7279ZM18.2531 22.7279H18.7969V28.2623H18.2531V22.7279ZM19.2594 22.7279H19.8031V28.2623H19.2594V22.7279ZM20.2656 22.7279H20.8094V28.2623H20.2656V22.7279ZM21.2719 22.7279H21.7969V28.2623H21.2719V22.7279Z" fill="#23A3C2"/>
  <path d="M15.7094 29.8376H22.35V36.4783H15.7062L15.7094 29.8376ZM16.2625 30.3908H16.7875V35.9251H16.2625V30.3908ZM17.2469 30.3908H17.7906V35.9251H17.2469V30.3908ZM18.2531 30.3908H18.7969V35.9251H18.2531V30.3908ZM19.2594 30.3908H19.8031V35.9251H19.2594V30.3908ZM20.2656 30.3908H20.8094V35.9251H20.2656V30.3908ZM21.2719 30.3908H21.7969V35.9251H21.2719V30.3908Z" fill="#34BBDE"/>
  <path d="M23.3719 29.8376H30.0125V36.4783H23.3719V29.8376ZM23.925 30.3908H24.45V35.9251H23.925V30.3908ZM24.9094 30.3908H25.4531V35.9251H24.9094V30.3908ZM25.9156 30.3908H26.4594V35.9251H25.9156V30.3908ZM26.9219 30.3908H27.4656V35.9251H26.9219V30.3908ZM27.9281 30.3908H28.475V35.9251H27.9281V30.3908ZM28.9344 30.3908H29.4594V35.9251H28.9344V30.3908Z" fill="#23A3C2"/>
  <path d="M23.3719 22.1748H30.0125V28.8154H23.3719V22.1748ZM23.925 22.7279H24.45V28.2623H23.925V22.7279ZM24.9094 22.7279H25.4531V28.2623H24.9094V22.7279ZM25.9156 22.7279H26.4594V28.2623H25.9156V22.7279ZM26.9219 22.7279H27.4656V28.2623H26.9219V22.7279ZM27.9281 22.7279H28.475V28.2623H27.9281V22.7279ZM28.9344 22.7279H29.4594V28.2623H28.9344V22.7279ZM31.0344 29.8373H37.675V36.4779H31.0344V29.8373ZM31.5875 30.3904H32.1125V35.9248H31.5875V30.3904ZM32.5719 30.3904H33.1156V35.9248H32.5719V30.3904ZM33.5781 30.3904H34.1219V35.9248H33.5781V30.3904ZM34.5844 30.3904H35.1281V35.9248H34.5844V30.3904ZM35.5906 30.3904H36.1344V35.9248H35.5906V30.3904ZM36.5969 30.3904H37.1219V35.9248H36.5969V30.3904Z" fill="#34BBDE"/>
  <path d="M31.0344 22.1748H37.675V28.8154H31.0344V22.1748ZM31.5875 22.7279H32.1125V28.2623H31.5875V22.7279ZM32.5719 22.7279H33.1156V28.2623H32.5719V22.7279ZM33.5781 22.7279H34.1219V28.2623H33.5781V22.7279ZM34.5844 22.7279H35.1281V28.2623H34.5844V22.7279ZM35.5906 22.7279H36.1344V28.2623H35.5906V22.7279ZM36.5969 22.7279H37.1219V28.2623H36.5969V22.7279Z" fill="#23A3C2"/>
  <path d="M31.0344 14.5125H37.675V21.1531H31.0344V14.5125ZM31.5875 15.0656H32.1125V20.6H31.5875V15.0656ZM32.5719 15.0656H33.1156V20.6H32.5719V15.0656ZM33.5781 15.0656H34.1219V20.6H33.5781V15.0656ZM34.5844 15.0656H35.1281V20.6H34.5844V15.0656ZM35.5906 15.0656H36.1344V20.6H35.5906V15.0656ZM36.5969 15.0656H37.1219V20.6H36.5969V15.0656Z" fill="#34BBDE"/>
  <path d="M38.6969 29.8376H45.3375V36.4783H38.6969V29.8376ZM39.25 30.3908H39.775V35.9251H39.25V30.3908ZM40.2344 30.3908H40.7781V35.9251H40.2344V30.3908ZM41.2406 30.3908H41.7844V35.9251H41.2406V30.3908ZM42.2469 30.3908H42.7906V35.9251H42.2469V30.3908ZM43.2531 30.3908H43.7969V35.9251H43.2531V30.3908ZM44.2594 30.3908H44.7844V35.9251H44.2594V30.3908Z" fill="#23A3C2"/>
  <path d="M21.9344 47.2467C22.9469 47.2342 23.7781 48.0436 23.7906 49.0561C23.8031 50.0686 22.9937 50.8998 21.9812 50.9123C21.9656 50.9123 21.9469 50.9123 21.9312 50.9123C20.9187 50.8998 20.1094 50.0686 20.125 49.0561C20.1406 48.0592 20.9406 47.2592 21.9344 47.2467Z" fill="#D3ECEC"/>
  <path d="M21.9344 47.7656C22.1031 47.7656 22.2625 47.7969 22.4094 47.8531C22.1531 48.0031 22.0656 48.3281 22.2156 48.5844C22.3125 48.75 22.4875 48.85 22.6781 48.85C22.8812 48.85 23.0562 48.7375 23.1469 48.5719C23.425 49.2406 23.1062 50.0094 22.4375 50.2875C21.7687 50.5656 21 50.2469 20.7219 49.5781C20.4437 48.9094 20.7625 48.1406 21.4312 47.8625C21.5906 47.8 21.7625 47.7656 21.9344 47.7656Z" fill="#364548"/>
  <path d="M26.8031 60.4469C22.2656 58.2938 19.775 55.3656 18.3906 52.1719C16.7063 52.6531 14.6781 52.9594 12.325 53.0938C11.4375 53.1438 10.5063 53.1688 9.52813 53.1688C8.40001 53.1688 7.20938 53.1344 5.96251 53.0688C10.125 57.2281 15.2438 60.4281 24.7219 60.4875C25.4188 60.4875 26.1125 60.475 26.8031 60.4469Z" fill="#BDD9D7"/>
  <path d="M20.075 55.1219C19.4469 54.2688 18.8375 53.2 18.3906 52.1719C16.7063 52.6531 14.6781 52.9625 12.325 53.0938C13.9438 53.9719 16.2563 54.7844 20.075 55.1219Z" fill="#D3ECEC"/>
</g>
<defs>
  <clipPath id="clip0">
    <rect width="75" height="75" fill="white"/>
  </clipPath>
</defs>
</svg>
