<svg xmlns="http://www.w3.org/2000/svg" enable-background="new 0 0 32 32" viewBox="0 0 32 32"><path d="M2 14.35449h10.85449c.82861 0 1.5-.67188 1.5-1.5V2c0-.82813-.67139-1.5-1.5-1.5H2C1.17139.5.5 1.17188.5 2v10.85449C.5 13.68262 1.17139 14.35449 2 14.35449zM3.5 3.5h7.85449v7.85449H3.5V3.5zM30 .5H19.14551c-.82861 0-1.5.67188-1.5 1.5v10.85449c0 .82813.67139 1.5 1.5 1.5H30c.82861 0 1.5-.67188 1.5-1.5V2C31.5 1.17188 30.82861.5 30 .5zM28.5 11.35449h-7.85449V3.5H28.5V11.35449zM2 31.5h10.85449c.82861 0 1.5-.67188 1.5-1.5V19.14551c0-.82813-.67139-1.5-1.5-1.5H2c-.82861 0-1.5.67188-1.5 1.5V30C.5 30.82813 1.17139 31.5 2 31.5zM3.5 20.64551h7.85449V28.5H3.5V20.64551zM30 17.64551H19.14551c-.82861 0-1.5.67188-1.5 1.5V30c0 .82813.67139 1.5 1.5 1.5H30c.82861 0 1.5-.67188 1.5-1.5V19.14551C31.5 18.31738 30.82861 17.64551 30 17.64551zM28.5 28.5h-7.85449v-7.85449H28.5V28.5z"/></svg>
