<svg width="101" height="101" viewBox="0 0 101 101" fill="none" xmlns="http://www.w3.org/2000/svg">
<path d="M75.9624 30.6542H75.9666V30.6376L75.9624 30.6542Z" fill="black"/>
<path d="M86.2462 73.9501C93.1878 73.9501 95.7545 69.1084 98.167 61.8501C100.667 54.3751 100.559 47.1834 98.167 37.6084C96.4462 30.7126 93.192 25.5084 86.2462 25.5084H77.3004V36.0959C77.3004 44.3084 70.3337 51.2293 62.392 51.2293H38.5504C32.0295 51.2293 26.6295 56.8084 26.6295 63.3501V86.0751C26.6295 92.5459 32.2545 96.3418 38.5504 98.1959C46.092 100.404 53.3503 100.804 62.3878 98.1959C68.392 96.4543 74.3087 92.9459 74.3087 86.0751V76.9876H50.4878V73.9543H86.2462V73.9501ZM63.8837 83.0376C66.3587 83.0376 68.3712 85.0709 68.3712 87.5709C68.3712 90.0959 66.3629 92.1251 63.8837 92.1251C61.4254 92.1251 59.3962 90.0709 59.3962 87.5709C59.4212 85.0459 61.4337 83.0376 63.8837 83.0376Z" fill="#F2BB30"/>
<path d="M14.3495 73.9536H22.5412V63.0578C22.5412 55.1786 29.3495 48.2328 37.4495 48.2328H61.287C67.9162 48.2328 73.2078 42.7661 73.2078 36.1119V13.3703C73.2078 6.89943 67.762 2.04943 61.287 0.961934C53.2953 -0.358899 44.612 -0.283899 37.4495 0.986934L37.4537 0.982767C27.362 2.7661 25.537 6.4911 25.537 13.3869V22.4744H49.3995V25.5119H16.5828C9.64118 25.5119 3.56618 29.6869 1.67451 37.6119C-0.512986 46.6994 -0.600486 52.3661 1.67451 61.8536C3.36618 68.9078 7.41201 73.9536 14.3495 73.9536ZM35.9578 16.4036C33.4828 16.4036 31.4703 14.3703 31.4703 11.8703C31.4995 9.34527 33.4828 7.3161 35.9578 7.3161C38.4162 7.3161 40.4453 9.3661 40.4453 11.8703C40.4453 14.3744 38.437 16.4036 35.9578 16.4036Z" fill="#35668F"/>
</svg>
