<?xml version="1.0"?>
<svg xmlns="http://www.w3.org/2000/svg" viewBox="0 0 100 106" fill="none">
<path d="M49.9992 62.3097C54.9399 62.3097 58.9451 58.0756 58.9451 52.8527C58.9451 47.6297 54.9399 43.3956 49.9992 43.3956C45.0586 43.3956 41.0534 47.6297 41.0534 52.8527C41.0534 58.0756 45.0586 62.3097 49.9992 62.3097Z" fill="#53C1DE"/>
<path d="M18.8083 69.5992C19.6875 69.9075 20.5667 70.2203 21.4667 70.489C21.175 71.7267 20.9208 72.9468 20.6833 74.2066C18.6333 85.6678 20.2333 94.7504 25.35 97.869C30.625 101.089 39.4917 97.7853 48.125 89.795C48.8083 89.1563 49.4917 88.4956 50.175 87.7909C51.0333 88.6806 51.9333 89.5263 52.8292 90.35C61.1875 97.9482 69.45 101.023 74.55 97.9086C79.825 94.6887 81.5417 84.9234 79.3167 73.0305C79.1417 72.1231 78.9458 71.1937 78.7292 70.2423C79.3542 70.0573 79.9583 69.8503 80.5667 69.6432C91.8375 65.701 100 59.3185 100 52.773C100 46.5182 92.3042 40.4485 81.6792 36.5855V36.5811C80.625 36.2111 79.5708 35.8587 78.5167 35.5284C78.6917 34.7663 78.85 33.9999 79.0042 33.2379C81.4083 20.931 79.825 11.0467 74.4917 7.78278C69.3542 4.66421 60.975 7.90611 52.5 15.7113C51.6583 16.4734 50.8417 17.2794 50.0583 18.0855C49.5292 17.5481 48.9833 17.0108 48.4375 16.4954C39.55 8.15278 30.6458 4.64218 25.3125 7.92813C20.1958 11.0687 18.6708 20.3804 20.8208 32.0178C21.0375 33.1762 21.2708 34.3083 21.5417 35.4667C20.2917 35.8367 19.0625 36.2508 17.9083 36.6868C7.47917 40.5058 0 46.5359 0 52.773C0 59.2172 7.96667 65.6746 18.8083 69.5992ZM45.3708 86.421C42.15 89.5396 38.4167 92.015 34.3542 93.7109C32.1875 94.8032 29.6875 94.909 27.4583 93.9796C24.3542 92.0811 23.0625 84.7912 24.8208 74.9818C25.0375 73.8278 25.2708 72.6693 25.5417 71.5329C29.9167 72.524 34.3292 73.2067 38.8042 73.5547C41.3833 77.4177 44.2125 81.1133 47.2417 84.5798C46.6167 85.2185 45.9917 85.8396 45.3667 86.4166L45.3708 86.421ZM70.175 47.6503C69.2583 45.8311 68.3208 44.0163 67.3417 42.2412C66.3833 40.4881 65.3875 38.7527 64.3542 37.0392C67.5 37.4533 70.5083 38.0083 73.3208 38.691C72.4208 41.7479 71.3667 44.7211 70.175 47.6503ZM70.2125 57.931C71.4625 60.9262 72.5583 63.9611 73.5125 67.0797C70.4833 67.8021 67.4208 68.3615 64.3333 68.7315C65.3875 66.996 66.3833 65.2209 67.3625 63.4458C68.3583 61.6266 69.2958 59.7898 70.2125 57.931ZM67.9542 52.795C66.6458 55.6449 65.2375 58.4507 63.7375 61.2169C62.2542 63.9611 60.6708 66.626 59.0125 69.2688C56.1042 69.4979 53.075 69.5992 50.0083 69.5992C46.9417 69.5992 43.975 69.4979 41.1042 69.3085C39.4042 66.6877 37.8042 64.0007 36.3 61.2566C34.7958 58.5124 33.4083 55.7242 32.1 52.8743H32.0917C33.3792 50.0244 34.7875 47.2362 36.2708 44.4921C37.7542 41.7479 39.3583 39.083 41.0375 36.4622C43.9667 36.2331 46.9542 36.1098 50.0042 36.1098C53.0542 36.1098 56.0583 36.2331 58.9708 36.4622C60.6292 39.0654 62.2125 41.7259 63.7167 44.4524C65.2208 47.179 66.625 49.9672 67.9542 52.795ZM32.6333 42.2809C31.675 44.034 30.7375 45.8267 29.8583 47.6459C28.6292 44.5714 27.5917 41.5585 26.7333 38.6469C29.5458 37.9862 32.5333 37.4488 35.6375 37.0348C34.6083 38.7483 33.5917 40.5013 32.6333 42.2809ZM29.8625 58.094C30.7625 59.9131 31.6792 61.7103 32.6542 63.4854C33.65 65.2825 34.6667 67.0797 35.7417 68.8328C32.6958 68.4804 29.6667 67.965 26.6792 67.2823C27.5375 64.3091 28.6125 61.2346 29.8625 58.094ZM50.1583 81.3996C48.1667 79.1311 46.175 76.616 44.2417 73.9071C46.1167 73.9907 48.05 74.0304 50.0042 74.0304C52.0167 74.0304 53.9875 73.9908 55.9417 73.885C54.1458 76.5059 52.2125 79.0078 50.1583 81.3996ZM75.6875 87.6015C75.5083 90.1166 74.3375 92.4687 72.4625 94.0588C69.3583 95.9573 62.7375 93.4818 55.5875 86.998C54.7667 86.2536 53.9458 85.4475 53.1083 84.6238C56.0958 81.1353 58.85 77.4397 61.35 73.5591C65.8208 73.1671 70.275 72.4447 74.6708 71.3919C74.8667 72.2377 75.0417 73.0834 75.2 73.9115C76.1583 78.3735 76.3125 83.0161 75.6875 87.6015ZM77.3833 39.7834C78.4 40.0917 79.375 40.4221 80.3125 40.7524C89.4125 44.056 95.8 48.9717 95.8 52.729C95.8 56.7769 88.9833 62.001 79.2375 65.4059C78.6917 65.5909 78.1458 65.7759 77.5792 65.9432C76.2125 61.4416 74.5333 57.0456 72.6 52.7686C74.475 48.5577 76.0583 44.219 77.3833 39.7834ZM55.25 19.0546C62.5208 12.3681 69.2958 9.7473 72.3833 11.6237C75.6833 13.6279 76.9542 21.7194 74.8833 32.3525C74.7458 33.0529 74.6083 33.7356 74.4333 34.4184C70.0958 33.3877 65.7042 32.6433 61.2875 32.2292C58.75 28.3838 55.975 24.7103 52.9667 21.2613C53.7292 20.4993 54.4708 19.7769 55.25 19.0546ZM50.0417 24.424C52.0917 26.7761 54.025 29.2516 55.8208 31.8108C51.9542 31.6258 48.0667 31.6258 44.2 31.8108C46.1125 29.1503 48.0875 26.6748 50.0417 24.424ZM27.3833 11.7691C30.6667 9.7473 37.95 12.6368 45.625 19.821C46.1125 20.2747 46.6 20.7724 47.1083 21.2658C44.0792 24.7103 41.2875 28.3839 38.7292 32.2248C34.3167 32.6388 29.9417 33.3612 25.6042 34.3743C25.35 33.3216 25.1375 32.2468 24.9208 31.1721C23.0833 21.1777 24.2958 13.6455 27.3833 11.7691ZM19.2792 40.8758C20.3917 40.4617 21.525 40.0917 22.6583 39.7393C23.9875 44.219 25.5875 48.6193 27.4417 52.8699C25.5667 57.1866 23.9458 61.6442 22.6 66.1855L22.5958 66.1899C21.775 65.9433 20.975 65.6746 20.175 65.3838C16.0167 64.0008 11.2875 61.8116 7.87083 58.9441C5.9 57.4993 4.57083 55.2705 4.2 52.7686C4.2 48.9893 10.3708 44.1573 19.2792 40.8758Z" fill="#53C1DE"/>
</svg>
