<svg width="100" height="97" viewBox="0 0 100 97" fill="none" xmlns="http://www.w3.org/2000/svg">
<g clip-path="url(#clip0)">
<path d="M9.87842 24.1983L9.88996 24.1871H9.87842V24.1983Z" fill="black"/>
<path d="M75.4335 32.9673L50.0085 19.6676L24.5752 32.9673L50.0085 46.9276L75.4335 32.9673Z" fill="#1B75BB"/>
<path d="M50.0002 19.6717L24.5752 32.9674L50.0002 46.9236V19.6717Z" fill="#1866A3"/>
<path d="M48.2021 79.404L22.5188 65.9754L6.98962 74.5062L48.2021 96.6671V79.404Z" fill="#8AD0F3"/>
<path d="M20.9132 30.9535L48.1882 16.6871V0L5.93823 22.7328L20.9132 30.9535Z" fill="#8AD0F3"/>
<path d="M48.1998 49.9124L22.8665 36.0045V62.2374L48.1998 75.4807V49.9124Z" fill="#1B75BB"/>
<path d="M22.5188 65.9754L6.98962 74.5062L34.8813 89.5057V72.44L22.5188 65.9754Z" fill="#78B5D4"/>
<path d="M34.8799 7.16125L5.93823 22.7326L20.9132 30.9533L34.8799 23.651V7.16125Z" fill="#78B5D4"/>
<path d="M22.8665 36.0045V62.2374L34.879 68.5167V42.5979L22.8665 36.0045Z" fill="#1866A3"/>
<path d="M4.16571 72.0814L19.2449 63.7963V34.0068L4.16571 25.7338V72.0814Z" fill="#8AD0F3"/>
<path d="M4.16571 25.7338V72.0814L11.7074 67.9368V29.8743L4.16571 25.7338Z" fill="#78B5D4"/>
<path d="M51.814 75.4807L77.1432 62.2374V36.0045L51.814 49.9124V75.4807Z" fill="#1B75BB"/>
<path d="M77.489 65.9754L51.814 79.404V96.6671L93.0182 74.5062L77.489 65.9754Z" fill="#8AD0F3"/>
<path d="M51.814 16.6871L79.0932 30.9656L94.0682 22.7328L51.814 0V16.6871Z" fill="#8AD0F3"/>
<path d="M64.4765 42.9561L51.814 49.9121V75.4804L64.4765 68.8588V42.9561Z" fill="#1866A3"/>
<path d="M64.4765 72.7818L51.814 79.4035V96.6665L64.4765 89.8556V72.7818Z" fill="#78B5D4"/>
<path d="M51.814 0V16.6871L64.4765 23.3168V6.81097L51.814 0Z" fill="#78B5D4"/>
<path d="M95.8335 25.7338L80.7543 34.0068V63.7963L95.8335 72.0814V25.7338Z" fill="#8AD0F3"/>
<path d="M88.296 29.8698L80.7543 34.0063V63.7958L88.296 67.9363V29.8698Z" fill="#78B5D4"/>
</g>
<defs>
<clipPath id="clip0">
<rect width="100" height="96.6667" fill="white"/>
</clipPath>
</defs>
</svg>
